<svg xmlns="http://www.w3.org/2000/svg" viewBox="0 0 500 500"><g id="freepik--background-complete--inject-89"><path d="M322.51,470.29s-.14.1-.42.26a7.93,7.93,0,0,1-1.3.63,12.32,12.32,0,0,1-5.48.61,25.62,25.62,0,0,1-8.37-2.49c-3.1-1.4-6.5-3.41-10.66-4.36a16.1,16.1,0,0,0-6.6,0,29.77,29.77,0,0,0-6.81,2.43c-2.28,1.07-4.57,2.33-7,3.42a24.35,24.35,0,0,1-8,2.18,21.91,21.91,0,0,1-8.63-1.42c-2.82-1-5.54-2.37-8.34-3.65a40.15,40.15,0,0,0-8.8-3.11,23.45,23.45,0,0,0-9.5.3c-6.35,1.49-12,4.69-17.77,6.88a36.29,36.29,0,0,1-8.83,2.3,18.54,18.54,0,0,1-2.23.14,18.25,18.25,0,0,1-2.22,0,30.07,30.07,0,0,1-4.28-.69c-5.57-1.35-10.42-3.82-15.23-5.26a45.37,45.37,0,0,0-13.78-1.95,47.32,47.32,0,0,0-19.6,4.45,45.43,45.43,0,0,0-4.81,2.69c-.51.34-.91.6-1.19.8l-.42.25s.12-.11.38-.3l1.17-.83a41,41,0,0,1,4.78-2.79,46.84,46.84,0,0,1,19.68-4.64,45.78,45.78,0,0,1,13.91,1.9c4.86,1.45,9.73,3.89,15.22,5.21a29.31,29.31,0,0,0,4.21.67,19.46,19.46,0,0,0,2.16,0,17.91,17.91,0,0,0,2.19-.15,35.24,35.24,0,0,0,8.71-2.28c5.74-2.18,11.37-5.39,17.83-6.9a23.81,23.81,0,0,1,9.72-.31A40.6,40.6,0,0,1,251,467.4c2.81,1.29,5.52,2.65,8.3,3.64a21.6,21.6,0,0,0,8.43,1.42,24,24,0,0,0,7.88-2.13c2.46-1.07,4.75-2.32,7-3.39a30.08,30.08,0,0,1,6.92-2.43,16.51,16.51,0,0,1,6.76.07c4.24,1,7.62,3,10.7,4.46a25.67,25.67,0,0,0,8.27,2.55,12.57,12.57,0,0,0,5.43-.51A19.15,19.15,0,0,0,322.51,470.29Z" style="fill:#e0e0e0"></path><path d="M473,439.08a2.7,2.7,0,0,1-.59-.19l-1.66-.64c-1.44-.55-3.52-1.37-6.17-2.11a23.44,23.44,0,0,0-9.49-.84,21.87,21.87,0,0,0-5.4,1.66,24.4,24.4,0,0,1-5.9,1.89,13.47,13.47,0,0,1-6.16-.78c-1.9-.62-3.67-1.35-5.42-1.81a16.41,16.41,0,0,0-9.42.39,17.14,17.14,0,0,0-5.61,3.17c-1.16,1-1.69,1.68-1.74,1.64a3.66,3.66,0,0,1,.38-.5,12.82,12.82,0,0,1,1.23-1.3,16.7,16.7,0,0,1,5.62-3.36,16.53,16.53,0,0,1,9.66-.5c1.8.45,3.58,1.18,5.46,1.79a13.3,13.3,0,0,0,5.93.75,23.89,23.89,0,0,0,5.77-1.86,22.24,22.24,0,0,1,5.53-1.65,23.11,23.11,0,0,1,9.66,1,54,54,0,0,1,6.15,2.27l1.62.73A2.21,2.21,0,0,1,473,439.08Z" style="fill:#e0e0e0"></path><path d="M443.65,149.25s-.3-.08-.85-.19a6.79,6.79,0,0,0-2.32-.06,6.29,6.29,0,0,0-3.1,1.36,6.54,6.54,0,0,0-2.19,3.48v0l-.14.52-.2-.49a6.87,6.87,0,0,0-5.82-4.27,9,9,0,0,0-3.15.4,3,3,0,0,1,.8-.35,6.72,6.72,0,0,1,2.36-.29,6.8,6.8,0,0,1,3.37,1.06,7.17,7.17,0,0,1,2.77,3.32l-.33,0v0a6.66,6.66,0,0,1,2.32-3.65,6.39,6.39,0,0,1,5.66-1.18A2.42,2.42,0,0,1,443.65,149.25Z" style="fill:#e0e0e0"></path><path d="M342.26,107.62a8.94,8.94,0,0,1-.77.89A19.05,19.05,0,0,0,336.8,121v.13l-.35,0a16.6,16.6,0,0,0-4.58-9.12,22.77,22.77,0,0,0-3.34-2.72,1.13,1.13,0,0,1,.27.13,7.93,7.93,0,0,1,.75.43,14.73,14.73,0,0,1,2.5,2,16.43,16.43,0,0,1,4.75,9.25l-.35,0V121a18.29,18.29,0,0,1,2.95-10.08,16.31,16.31,0,0,1,2-2.52c.26-.28.49-.47.63-.61S342.25,107.61,342.26,107.62Z" style="fill:#e0e0e0"></path><path d="M112.13,162.76c.56-4-5.15-7.38-9.45-7.73-2.05-.17-4.18.15-6.12-.53-4.2-1.46-5.88-6.9-10-8.63-3.07-1.29-6.6-.14-9.58,1.36s-5.91,3.38-9.23,3.59c-2.89.19-6-.89-8.56.53-1.88,1.05-2.87,3.22-4.61,4.5s-3.91,1.52-6,1.63a17.05,17.05,0,0,0-6.21,1c-1.92.88-3.5,2.91-3.11,5Z" style="fill:#f5f5f5"></path><path d="M466.86,224c.67-4.87-6.21-8.88-11.38-9.3-2.46-.2-5,.18-7.36-.63-5.05-1.77-7.07-8.3-12-10.38-3.69-1.56-7.94-.17-11.52,1.63s-7.11,4.06-11.11,4.32c-3.47.22-7.25-1.07-10.29.63-2.27,1.27-3.45,3.88-5.54,5.42s-4.71,1.82-7.25,2-5.16.17-7.47,1.22-4.22,3.5-3.74,6Z" style="fill:#f5f5f5"></path><path d="M302,53.47c.7-5.09-6.48-9.28-11.88-9.72-2.58-.2-5.25.19-7.69-.66-5.29-1.84-7.4-8.67-12.56-10.85-3.85-1.62-8.29-.17-12,1.71s-7.43,4.25-11.61,4.51c-3.63.24-7.57-1.11-10.75.66-2.37,1.32-3.61,4.05-5.79,5.66s-4.93,1.91-7.57,2.06-5.4.17-7.81,1.27-4.41,3.66-3.91,6.26Z" style="fill:#ebebeb"></path><path d="M442.8,305.89c.53-3.88-4.94-7.06-9.05-7.4-2-.15-4,.15-5.85-.5-4-1.4-5.63-6.6-9.55-8.25-2.94-1.24-6.32-.14-9.16,1.29s-5.66,3.23-8.83,3.44c-2.77.17-5.77-.85-8.19.5-1.8,1-2.75,3.08-4.41,4.31a10.48,10.48,0,0,1-5.76,1.56,16.29,16.29,0,0,0-5.94,1c-1.83.84-3.35,2.78-3,4.77Z" style="fill:#ebebeb"></path></g><g id="freepik--Sea--inject-89"><path d="M473.38,413.93c0,.15-102.59.26-229.11.26s-229.12-.11-229.12-.26,102.56-.26,229.12-.26S473.38,413.79,473.38,413.93Z" style="fill:#263238"></path></g><g id="freepik--Sun--inject-89"><circle cx="104.09" cy="86.21" r="17.41" style="fill:#DD6B20"></circle><path d="M101.61,125.15a71.76,71.76,0,0,1-.18-7.19,71.64,71.64,0,0,1,.18-7.18,69.72,69.72,0,0,1,.19,7.18A69.84,69.84,0,0,1,101.61,125.15Z" style="fill:#DD6B20"></path><path d="M91.58,106.73c.09,0-1.55,3-3.66,6.7S84,120,84,120s1.55-3,3.65-6.7S91.49,106.68,91.58,106.73Z" style="fill:#DD6B20"></path><path d="M81.28,100.32a39.93,39.93,0,0,1-4.07,3.47A42.33,42.33,0,0,1,72.92,107,38.49,38.49,0,0,1,77,103.5,37.85,37.85,0,0,1,81.28,100.32Z" style="fill:#DD6B20"></path><path d="M119,118.07a9.25,9.25,0,0,1-.46-1.77c-.25-1.09-.61-2.6-1-4.26s-.9-3.14-1.23-4.21a9.84,9.84,0,0,1-.49-1.76,8.46,8.46,0,0,1,.73,1.67c.4,1.06.89,2.54,1.34,4.2s.76,3.2,1,4.31A8.72,8.72,0,0,1,119,118.07Z" style="fill:#DD6B20"></path><path d="M136.65,105.54a62.09,62.09,0,0,1-5.15-4.26,62.17,62.17,0,0,1-4.91-4.53,58,58,0,0,1,5.15,4.26A60,60,0,0,1,136.65,105.54Z" style="fill:#DD6B20"></path><path d="M143.41,88.31a12.3,12.3,0,0,1-2.1-.3c-1.29-.21-3.07-.49-5.05-.72s-3.78-.36-5.09-.44a14.65,14.65,0,0,1-2.11-.18,9.92,9.92,0,0,1,2.12-.08c1.31,0,3.13.11,5.12.34s3.78.55,5.06.83A11.55,11.55,0,0,1,143.41,88.31Z" style="fill:#DD6B20"></path><path d="M143.43,71.38c0,.1-3.74,1.1-8.41,2.24s-8.49,2-8.51,1.88,3.74-1.1,8.42-2.24S143.41,71.28,143.43,71.38Z" style="fill:#DD6B20"></path><path d="M123.76,51.64c.08.06-1.72,2.94-4,6.43s-4.25,6.28-4.33,6.22,1.71-2.93,4-6.42S123.67,51.59,123.76,51.64Z" style="fill:#DD6B20"></path><path d="M104.23,47.52a16.27,16.27,0,0,1,0,2.39c0,1.48,0,3.51,0,5.76s0,4.29.06,5.76a18.16,18.16,0,0,1,0,2.39,13.64,13.64,0,0,1-.24-2.38c-.09-1.47-.17-3.51-.17-5.77s.07-4.29.16-5.77A13.51,13.51,0,0,1,104.23,47.52Z" style="fill:#DD6B20"></path><path d="M89.44,65.94c-.08,0-1.92-2.79-4.1-6.35S81.47,53.1,81.56,53s1.92,2.79,4.1,6.36S89.53,65.89,89.44,65.94Z" style="fill:#DD6B20"></path><path d="M80.61,73.45a8.65,8.65,0,0,1-1.85-.3c-1.14-.23-2.69-.61-4.38-1.11s-3.21-1-4.29-1.44a8.47,8.47,0,0,1-1.71-.76,10.46,10.46,0,0,1,1.8.51c1.1.35,2.61.84,4.3,1.34s3.22.91,4.34,1.21A10.29,10.29,0,0,1,80.61,73.45Z" style="fill:#DD6B20"></path><path d="M76.75,86.83a42.84,42.84,0,0,1-5.56.71,43,43,0,0,1-5.59.36,43.82,43.82,0,0,1,5.56-.72A41.78,41.78,0,0,1,76.75,86.83Z" style="fill:#DD6B20"></path></g><g id="freepik--Birds--inject-89"><path d="M391,88.75s-.6-.2-1.71-.45a13.67,13.67,0,0,0-4.79-.18,12.77,12.77,0,0,0-6.44,2.78,13.29,13.29,0,0,0-4.55,7.22l0,.08-.14.52-.19-.49a14.37,14.37,0,0,0-5.45-6.58,14,14,0,0,0-6.66-2.22,14.57,14.57,0,0,0-4.75.44c-1.1.29-1.68.54-1.69.51a2.75,2.75,0,0,1,.41-.2,10.73,10.73,0,0,1,1.24-.44,14.23,14.23,0,0,1,11.62,1.64,14.55,14.55,0,0,1,5.6,6.72l-.33,0,0-.08a13.54,13.54,0,0,1,4.69-7.39,13.21,13.21,0,0,1,11.46-2.48,8.67,8.67,0,0,1,1.26.4A2.34,2.34,0,0,1,391,88.75Z" style="fill:#263238"></path><path d="M463.57,101.07s-.34-.09-.95-.22a7.72,7.72,0,0,0-2.62-.07,6.94,6.94,0,0,0-3.5,1.53,7.24,7.24,0,0,0-2.47,3.93l0,.05-.13.51-.2-.49a8,8,0,0,0-3-3.59,7.68,7.68,0,0,0-3.62-1.22,8.66,8.66,0,0,0-2.61.21c-.6.15-.92.28-.93.26s.07-.06.22-.13a5.91,5.91,0,0,1,.68-.26,7.72,7.72,0,0,1,6.43.88,8,8,0,0,1,3.12,3.72l-.34,0,0,0a7.45,7.45,0,0,1,2.61-4.1,7.2,7.2,0,0,1,3.67-1.53,7.07,7.07,0,0,1,2.68.19,5.43,5.43,0,0,1,.69.23C463.5,101,463.58,101.06,463.57,101.07Z" style="fill:#263238"></path><path d="M429,50s-.33.37-.92,1a22.79,22.79,0,0,0-2.25,3,22.15,22.15,0,0,0-3.33,11.8V66l-.35,0A19.28,19.28,0,0,0,420,59.6a19.83,19.83,0,0,0-3.28-4.43,20.21,20.21,0,0,0-2.85-2.42c-.72-.5-1.14-.75-1.13-.78a1.06,1.06,0,0,1,.32.16,8.18,8.18,0,0,1,.89.51A17.72,17.72,0,0,1,416.9,55a19.55,19.55,0,0,1,5.62,10.94l-.35,0v-.15a21.76,21.76,0,0,1,3.47-11.93,19.51,19.51,0,0,1,2.36-3c.3-.33.57-.56.74-.72S429,49.94,429,50Z" style="fill:#263238"></path></g><g id="freepik--Buoy--inject-89"><rect x="447.78" y="351.28" width="5.26" height="36.26" transform="translate(1015.6 510.49) rotate(154.66)" style="fill:#455a64"></rect><path d="M445,351.71c.13-.06,2.88,5.43,6.16,12.26s5.81,12.43,5.68,12.49S454,371,450.72,364.2,444.9,351.77,445,351.71Z" style="fill:#263238"></path><path d="M443.43,360.66c.13-.06,2.85,5.43,6.06,12.26s5.72,12.42,5.59,12.48S452.23,380,449,373.14,443.3,360.73,443.43,360.66Z" style="fill:#263238"></path><rect x="446.62" y="351.47" width="5.26" height="36.26" transform="translate(398.44 -209.93) rotate(45.55)" style="fill:#455a64"></rect><path d="M460.42,354.84c.1.11-4.22,4.47-9.65,9.76s-9.92,9.48-10,9.38,4.22-4.47,9.66-9.76S460.32,354.74,460.42,354.84Z" style="fill:#263238"></path><path d="M458.82,363.79c.11.11-4.17,4.49-9.55,9.79s-9.82,9.51-9.92,9.41,4.18-4.48,9.56-9.78S458.72,363.69,458.82,363.79Z" style="fill:#263238"></path><path d="M450.78,323.14H461.1a5.5,5.5,0,0,1,5.5,5.5v17.29a2.86,2.86,0,0,1-2.86,2.86h-15.6a2.86,2.86,0,0,1-2.86-2.86V328.64a5.5,5.5,0,0,1,5.5-5.5Z" transform="translate(66 -74.76) rotate(10.1)" style="fill:#455a64"></path><rect x="444.73" y="337.04" width="21.33" height="3.94" transform="translate(66.52 -74.62) rotate(10.1)" style="fill:#fff"></rect><rect x="446.04" y="329.67" width="21.33" height="3.94" transform="translate(65.25 -74.97) rotate(10.1)" style="fill:#fff"></rect><path d="M461.37,350a6.32,6.32,0,0,0,.87,0,2.85,2.85,0,0,0,2-1.33,4.2,4.2,0,0,0,.48-1.71c.12-.66.24-1.38.36-2.14.27-1.55.57-3.3.9-5.22s.7-4.06,1.09-6.33l.3-1.73a9.87,9.87,0,0,0,.23-1.77,5.25,5.25,0,0,0-1.18-3.35c-1.56-2.13-4.61-2-7.32-2.6l-4.24-.75c-.71-.12-1.46-.28-2.15-.36a5.34,5.34,0,0,0-2.1.21,5.23,5.23,0,0,0-3.13,2.67,6.7,6.7,0,0,0-.58,2l-.38,2.11-1.44,8c-.23,1.28-.46,2.52-.68,3.74-.11.6-.21,1.2-.32,1.78a4.91,4.91,0,0,0-.15,1.67,2.66,2.66,0,0,0,2,2.16l3,.56,9.14,1.71,2.48.49a5.64,5.64,0,0,1,.86.21,5.57,5.57,0,0,1-.88-.1l-2.5-.4-9.17-1.55-3-.53a3.09,3.09,0,0,1-2.31-2.48,5.25,5.25,0,0,1,.14-1.82c.1-.58.21-1.18.31-1.78.21-1.22.43-2.46.66-3.74l1.41-8c.12-.7.25-1.4.37-2.11a7.05,7.05,0,0,1,.62-2.14,5.74,5.74,0,0,1,3.44-2.94,5.84,5.84,0,0,1,2.31-.23c.77.1,1.46.25,2.19.37l4.24.76,4.09.74a5.76,5.76,0,0,1,3.51,2.06,5.69,5.69,0,0,1,1.27,3.66,10.36,10.36,0,0,1-.25,1.83c-.11.59-.21,1.17-.31,1.74-.42,2.26-.81,4.38-1.16,6.31s-.68,3.67-1,5.21c-.14.76-.28,1.48-.4,2.14a4.4,4.4,0,0,1-.56,1.76,2.85,2.85,0,0,1-2.13,1.33A2.06,2.06,0,0,1,461.37,350Z" style="fill:#263238"></path><rect x="458.03" y="350.21" width="5.26" height="37.67" transform="translate(71.87 -75.07) rotate(10.1)" style="fill:#455a64"></rect><rect x="437.04" y="347.36" width="5.26" height="37.67" transform="translate(71.05 -71.44) rotate(10.1)" style="fill:#455a64"></rect><rect x="433.48" y="345.9" width="40.17" height="6.77" rx="3.16" transform="translate(68.3 -74.14) rotate(10.1)" style="fill:#455a64"></rect><path d="M470,355.65c0,.14-7.65-1.1-17-2.77s-17-3.14-16.95-3.28,7.65,1.1,17,2.77S470.06,355.51,470,355.65Z" style="fill:#263238"></path><path d="M471.21,349.05c0,.15-7.66-1.1-17-2.77s-17-3.14-16.95-3.28,7.65,1.1,17,2.77S471.23,348.91,471.21,349.05Z" style="fill:#263238"></path><path d="M439,385.18c-.14,0,1.1-7.62,2.76-17s3.13-16.9,3.27-16.87-1.09,7.61-2.76,17S439.1,385.21,439,385.18Z" style="fill:#263238"></path><path d="M454.62,388c-.14,0,1.09-7.62,2.76-17s3.13-16.9,3.27-16.87-1.1,7.61-2.76,17S454.76,388,454.62,388Z" style="fill:#263238"></path><path d="M467.85,388.62l-41.44-7.38a5,5,0,0,0-5.8,4l-5.08,28.54,52.93-.09,3.44-19.31A5,5,0,0,0,467.85,388.62Z" style="fill:#455a64"></path><polygon points="468.46 413.73 415.54 413.69 419.12 393.69 470.4 402.83 468.46 413.73" style="fill:#263238"></polygon><path d="M466.9,388.55c0,.14-8.81-1.31-19.63-3.23s-19.56-3.61-19.54-3.75,8.81,1.31,19.63,3.23S466.93,388.41,466.9,388.55Z" style="fill:#263238"></path><path d="M387,414.81A18.28,18.28,0,0,1,407.56,409c3,1.16,5.88,3.19,9.12,3.05s6.2-2.64,9.45-3.63c3.78-1.16,7.84-.2,11.7.68,11.57,2.64,33.66,5.33,48.06,5.72" style="fill:#fff"></path><path d="M485.89,414.81a.76.76,0,0,1-.26,0h-.78c-.69,0-1.7,0-3-.08-2.61-.09-6.38-.31-11-.71s-10.18-1-16.29-1.81-12.83-1.92-19.75-3.54a24.86,24.86,0,0,0-5.18-.55,12.26,12.26,0,0,0-4.86,1.06c-1.52.66-2.94,1.51-4.44,2.16a9.17,9.17,0,0,1-4.72.89,13.8,13.8,0,0,1-4.36-1.36c-1.34-.61-2.59-1.26-3.86-1.74a17.16,17.16,0,0,0-7.4-1A18.82,18.82,0,0,0,389.88,412a18.55,18.55,0,0,0-2.18,2l-.52.58c-.12.13-.18.2-.19.19l.15-.22.48-.62a15.73,15.73,0,0,1,2.14-2.12,18.52,18.52,0,0,1,10.17-4.09,17.39,17.39,0,0,1,7.59,1c2.59.94,5.09,2.7,8.1,3a8.66,8.66,0,0,0,4.48-.86c1.46-.64,2.87-1.49,4.43-2.17a12.58,12.58,0,0,1,5.06-1.12,24.89,24.89,0,0,1,5.29.56c6.94,1.63,13.61,2.71,19.71,3.57s11.62,1.48,16.26,1.92,8.4.72,11,.88l3,.17.78,0Z" style="fill:#263238"></path><circle cx="406.79" cy="397.21" r="2.75" style="fill:#fafafa"></circle><path d="M409.54,397.21a5.24,5.24,0,0,1-.18-.65,2.84,2.84,0,0,0-1-1.39,2.59,2.59,0,0,0-2.41-.32,2.52,2.52,0,0,0,0,4.72,2.59,2.59,0,0,0,2.41-.32,2.84,2.84,0,0,0,1-1.39,5.24,5.24,0,0,1,.18-.65s.09.25,0,.7a2.78,2.78,0,0,1-1,1.63,2.91,2.91,0,0,1-2.8.48,3,3,0,0,1,0-5.62,2.93,2.93,0,0,1,2.8.48,2.78,2.78,0,0,1,1,1.63C409.63,397,409.57,397.21,409.54,397.21Z" style="fill:#263238"></path></g><g id="freepik--Character--inject-89"><path d="M220.07,121.53s8.63,146.34,86.62,227.86l-90.42-2.71Z" style="fill:#f5f5f5"></path><path d="M220.07,121.53c0,2.51-1.52,96.77-3.55,225.16l-.24-.26,56.62,1.69,33.79,1-.19.44a242.48,242.48,0,0,1-30.67-40.5,313,313,0,0,1-21.22-41.88,450.33,450.33,0,0,1-23.69-75,522.36,522.36,0,0,1-9-51.68c-.74-6.12-1.2-10.87-1.47-14.08-.14-1.61-.22-2.84-.27-3.67,0-.4,0-.71-.06-.92v-.32c0,.32.16,1.77.44,4.9s.78,8,1.55,14.07c1.57,12.21,4.24,29.92,9.19,51.62A453.85,453.85,0,0,0,255,267a314.12,314.12,0,0,0,21.23,41.8,242.07,242.07,0,0,0,30.61,40.4l.43.45h-.62l-33.79-1-56.63-1.7H216v-.25C218.33,218.3,220,124,220.07,121.53Z" style="fill:#263238"></path><path d="M270.55,300.23c-3.07,12.23-19.53,6.23-27.32-.26-3.82-3.19-6.61-7.42-10-11.07s-7.74-6.88-12.72-7l-.46,34.48s6.71-5.47,18.69,6.39,25.14,13.64,33,7.6,9.84-12.06,9.84-12.06Z" style="fill:#fff"></path><path d="M56.05,341.22S79.34,163.55,216.94,120.69l-.11,17.59s-42.71,94.91-.56,209.78Z" style="fill:#f5f5f5"></path><path d="M128.25,204.33c.12.08-3.39,5.33-7.83,11.73s-8.13,11.52-8.25,11.44,3.39-5.34,7.83-11.74S128.13,204.25,128.25,204.33Z" style="fill:#263238"></path><path d="M64.72,302c9.71,6.94,23.89,6.76,34.68,1.66s19.35-13.84,27.59-22.47,16.63-17.49,27.23-23a53.45,53.45,0,0,1,43-2.43l.72.35s0-25.23.16-28.6c0,0-14.65-5.13-24.54-6.55-11.13-1.6-31.44,1.2-49.29,20-15.63,16.48-30.66,38.29-49,28.86C71.39,281.08,67.81,291.85,64.72,302Z" style="fill:#fff"></path><path d="M56.05,341.22l160.23,6.62-.22.29A304.71,304.71,0,0,1,206,171.5a224,224,0,0,1,10.63-33.32l0,.1q.06-8.92.11-17.59l.34.24A188.51,188.51,0,0,0,164.32,147a210.63,210.63,0,0,0-39.77,36.93,265.76,265.76,0,0,0-27.66,40.14,331.52,331.52,0,0,0-18.32,38,382.2,382.2,0,0,0-18.28,57.63c-1.61,6.91-2.64,12.31-3.3,16-.31,1.83-.55,3.22-.71,4.17s-.23,1.41-.23,1.41.05-.48.18-1.42.35-2.34.66-4.17c.63-3.67,1.64-9.07,3.22-16a377.49,377.49,0,0,1,18.14-57.72,331.71,331.71,0,0,1,18.29-38.06,266.21,266.21,0,0,1,27.66-40.24,211.56,211.56,0,0,1,39.84-37,189,189,0,0,1,52.82-26.15l.34-.1v.35q-.06,8.67-.11,17.6v.05l0,0a222.85,222.85,0,0,0-10.59,33.23,304.63,304.63,0,0,0,10,176.36l.11.31h-.33Z" style="fill:#263238"></path><path d="M173.56,148.48l-.35.31-1.06.87-4.1,3.33-3,2.39c-1.07.9-2.19,1.92-3.42,3-2.42,2.17-5.28,4.53-8.18,7.42l-4.64,4.45c-1.61,1.56-3.17,3.28-4.85,5-3.39,3.41-6.73,7.33-10.3,11.4a263,263,0,0,0-37.94,59.11c-2.21,4.94-4.39,9.6-6.08,14.11-.87,2.25-1.79,4.39-2.53,6.49s-1.44,4.14-2.12,6.07c-1.42,3.85-2.38,7.43-3.34,10.53-.46,1.56-.92,3-1.29,4.35s-.66,2.58-.94,3.7c-.57,2.19-1,3.91-1.32,5.1l-.35,1.33c-.09.3-.14.45-.14.45s0-.16.08-.46.18-.77.31-1.34c.29-1.2.7-2.92,1.22-5.13.27-1.12.57-2.36.9-3.71s.8-2.8,1.25-4.37c.94-3.12,1.88-6.71,3.28-10.57.66-1.94,1.36-4,2.08-6.09s1.65-4.25,2.51-6.51c1.68-4.52,3.84-9.2,6-14.16a259.55,259.55,0,0,1,38-59.21c3.6-4.07,6.95-8,10.36-11.39,1.69-1.72,3.26-3.45,4.88-5l4.66-4.44c2.93-2.87,5.81-5.22,8.25-7.37,1.24-1.06,2.37-2.07,3.45-3l3-2.36,4.16-3.25,1.08-.83A4.07,4.07,0,0,1,173.56,148.48Z" style="fill:#263238"></path><path d="M208.15,208.8s2.31-2.52,3-2.58,7.9,2.1,7.9,2.1a4.91,4.91,0,0,1,2.26,1.07c.65.76,7,7.92,7,7.92l4.56,2.25-4.19,10.58-7.5-5.32s-9.26-1.66-10.06-2.63-1.46-2.53-.86-3a4,4,0,0,1-.54-2.26,15,15,0,0,1,.48-1.64s-1.4-1-1.45-1.69a2.7,2.7,0,0,0-.27-1.08l-.32-.53Z" style="fill:#ffbe9d"></path><path d="M211.37,210.31s0,.25-.13.6a2.66,2.66,0,0,1-.87,1.21,1.81,1.81,0,0,1-1.47.34c-.39-.1-.55-.31-.52-.34s.22.08.56.11a1.82,1.82,0,0,0,1.23-.38,3.56,3.56,0,0,0,.86-1C211.21,210.5,211.33,210.29,211.37,210.31Z" style="fill:#eb996e"></path><path d="M224.43,214.26,211,206.83s-1.39,1.47.52,3.5a33.91,33.91,0,0,0,4.84,4l3.71,6.63Z" style="fill:#ffbe9d"></path><path d="M314.91,202.28h9.59l8.54-2.07s5.21,23.74,7.68,32.8,29.09,39,29.91,41.17.28,11.8-11.25,14.55-17.84-1.92-20.86,3.57a81.25,81.25,0,0,1-5.49,8.78l-59.47,5.16,8.14-43.37,3-54.15,10.19-12.62Z" style="fill:#DD6B20"></path><g style="opacity:0.30000000000000004"><path d="M314.91,202.28h9.59l8.54-2.07s5.21,23.74,7.68,32.8,29.09,39,29.91,41.17.28,11.8-11.25,14.55-17.84-1.92-20.86,3.57a81.25,81.25,0,0,1-5.49,8.78l-59.47,5.16,8.14-43.37,3-54.15,10.19-12.62Z"></path></g><path d="M381.43,128.6l-3.73,10.28-1.26,1.71s-1.19,5.74-1.28,7,1.38,7.7,1.38,7.7l-3.69,5.65,9.82,4s2.78-5.18,3.54-5.76a6.34,6.34,0,0,0,1.53-3.4c.2-1.14,1.82-7.91,1.82-7.91s4.53-7.4,2.71-7.82a6,6,0,0,0-1.38,0s-2.74,4.88-3.45,5l-1-.61s2.21-7.5,2.34-8.91-.13-2.4-1.22-2.59c0,0-.82.31-.9.67s-2.31,8.73-2.77,8.56-.23-.92-.23-.92,2.95-10.15,2.83-10.74A1.6,1.6,0,0,0,384.9,129l-2.21,5.56s1.07-4.7.33-5.56A1.33,1.33,0,0,0,381.43,128.6Z" style="fill:#ffbe9d"></path><path d="M383.07,151.55c-.09,0,0-.88-.32-2.29a8.89,8.89,0,0,0-3-4.83l-.14-.1,0-.16c.19-.74.38-1.53.59-2.33v-.05l0,0a8.54,8.54,0,0,0,.53-.8,9,9,0,0,0,1.2-3,3.15,3.15,0,0,0,0-1.4,1,1,0,0,0-.73-.78l.17-.06c-1.21,1.11-2.22,2-2.94,2.65a6.79,6.79,0,0,1-1.17.93,6.55,6.55,0,0,1,1-1.12c.66-.68,1.63-1.64,2.8-2.78l.08-.07h.09a1.45,1.45,0,0,1,1.16,1.09,3.85,3.85,0,0,1,0,1.62,9.52,9.52,0,0,1-1.25,3.14,8.4,8.4,0,0,1-.57.85l0-.09c-.21.8-.41,1.58-.61,2.32l-.09-.26a8.73,8.73,0,0,1,3,5.17,7.6,7.6,0,0,1,.1,1.74C383.13,151.34,383.1,151.56,383.07,151.55Z" style="fill:#eb996e"></path><path d="M383.23,143.18a7,7,0,0,1,3.12,1.43,6.93,6.93,0,0,1,2.44,2.41,31.75,31.75,0,0,1-2.74-2A31.21,31.21,0,0,1,383.23,143.18Z" style="fill:#eb996e"></path><path d="M318.34,411.75l-11.76,12s8.25,16,6.3,18.41l-24.1-22,17.56-19.45Z" style="fill:#DD6B20"></path><g style="opacity:0.30000000000000004"><path d="M318.34,411.75l-11.76,12s8.25,16,6.3,18.41l-24.1-22,17.56-19.45Z"></path></g><path d="M300.08,415.92a1.32,1.32,0,0,0-1.7.5,1.3,1.3,0,0,0,.48,1.7,1.4,1.4,0,0,0,1.8-.55,1.32,1.32,0,0,0-.69-1.7" style="fill:#e0e0e0"></path><g style="opacity:0.6000000000000001"><path d="M288.78,420.2l1.85-1.89L313,440.08s.65,1.44-.16,2.09Z" style="fill:#fff"></path></g><path d="M307.08,424c-.11.11-.74-.37-1.67-.52s-1.68.06-1.75-.08.73-.67,1.85-.47S307.21,423.9,307.08,424Z" style="fill:#263238"></path><path d="M308.66,427.34c-.08.14-.77-.13-1.62,0s-1.45.56-1.57.45.42-.85,1.49-1S308.76,427.22,308.66,427.34Z" style="fill:#263238"></path><path d="M307.34,431.67c-.13-.07.24-.81,1.13-1.18s1.67-.12,1.63,0-.69.18-1.42.49S307.46,431.77,307.34,431.67Z" style="fill:#263238"></path><path d="M309.46,421c-.15.06-.54-.6-1.24-1.16s-1.42-.82-1.39-1,.91-.12,1.73.55S309.6,420.92,309.46,421Z" style="fill:#263238"></path><path d="M311.79,418.49c-.05.05-.58-.3-1.2-1.11a7.45,7.45,0,0,1-.91-1.53,7.36,7.36,0,0,1-.36-1,2.15,2.15,0,0,1-.11-.62.71.71,0,0,1,.52-.67.84.84,0,0,1,.76.2,2.09,2.09,0,0,1,.4.47,5.43,5.43,0,0,1,.51.94,5.65,5.65,0,0,1,.45,1.75,2.7,2.7,0,0,1-.18,1.62c-.09,0,0-.62-.21-1.57a6.66,6.66,0,0,0-.52-1.59,6.18,6.18,0,0,0-.5-.84c-.19-.3-.41-.5-.58-.45s-.08,0-.09.16a1.65,1.65,0,0,0,.07.45c.09.34.2.65.31.95a8.83,8.83,0,0,0,.76,1.51A12.14,12.14,0,0,1,311.79,418.49Z" style="fill:#263238"></path><path d="M311.48,418.52c-.06,0,.09-.66.75-1.46a5.58,5.58,0,0,1,1.36-1.17,5.86,5.86,0,0,1,1-.45,1.35,1.35,0,0,1,1.32.09.76.76,0,0,1,.2.8,2.17,2.17,0,0,1-.28.55,3.46,3.46,0,0,1-.74.82,3.67,3.67,0,0,1-1.65.77c-1,.2-1.66-.11-1.63-.16a10.68,10.68,0,0,0,1.54-.22,3.77,3.77,0,0,0,1.41-.78,3.36,3.36,0,0,0,.62-.72c.19-.29.28-.58.16-.65a.92.92,0,0,0-.78,0,4.77,4.77,0,0,0-.89.38,5.62,5.62,0,0,0-1.34,1C311.84,418,311.56,418.56,311.48,418.52Z" style="fill:#263238"></path><path d="M315.27,414.17l-.09,16.8s17.05,5.74,17.33,8.85l-32.58,1L299,414.62Z" style="fill:#DD6B20"></path><path d="M305.06,429.87a1.33,1.33,0,0,0-.87,1.55,1.27,1.27,0,0,0,1.52.88,1.42,1.42,0,0,0,.92-1.65,1.34,1.34,0,0,0-1.69-.74" style="fill:#e0e0e0"></path><g style="opacity:0.6000000000000001"><path d="M299.93,440.81v-2.64l31.24,0s1.47.59,1.33,1.62Z" style="fill:#fff"></path></g><path d="M315.7,430.79c0,.16-.79.26-1.56.79s-1.16,1.22-1.31,1.16.06-1,1-1.61S315.73,430.65,315.7,430.79Z" style="fill:#263238"></path><path d="M319.16,432.1c0,.16-.64.45-1.16,1.14s-.65,1.4-.81,1.4-.29-.9.38-1.74S319.16,432,319.16,432.1Z" style="fill:#263238"></path><path d="M321.23,436.13c-.14,0-.39-.75,0-1.63s1.12-1.25,1.19-1.12-.38.61-.68,1.34S321.39,436.11,321.23,436.13Z" style="fill:#263238"></path><path d="M315.3,427c-.06.15-.8,0-1.7,0s-1.59.39-1.67.26.57-.72,1.62-.81S315.37,426.83,315.3,427Z" style="fill:#263238"></path><path d="M315.26,423.57a3.08,3.08,0,0,1-1.64,0,7.39,7.39,0,0,1-2.67-.94,1.77,1.77,0,0,1-.51-.37.7.7,0,0,1-.1-.84.88.88,0,0,1,.69-.39,2.18,2.18,0,0,1,.61.07,6.2,6.2,0,0,1,1,.32,5.62,5.62,0,0,1,1.54.94c.77.67,1.05,1.26,1,1.29s-.45-.43-1.24-1a6.37,6.37,0,0,0-1.48-.78,5.4,5.4,0,0,0-.94-.26c-.35-.08-.64-.07-.73.08s0,.09,0,.18a1.42,1.42,0,0,0,.37.27,8.42,8.42,0,0,0,.88.47,9.08,9.08,0,0,0,1.6.56A10.76,10.76,0,0,1,315.26,423.57Z" style="fill:#263238"></path><path d="M315.05,423.8a2.65,2.65,0,0,1-.47-1.56,5.24,5.24,0,0,1,.16-1.79,6.34,6.34,0,0,1,.39-1,1.35,1.35,0,0,1,1-.85.76.76,0,0,1,.69.43,2.29,2.29,0,0,1,.19.6,3.72,3.72,0,0,1,0,1.1,3.81,3.81,0,0,1-.64,1.7c-.61.87-1.27,1.08-1.29,1a10.66,10.66,0,0,0,.95-1.23,3.63,3.63,0,0,0,.47-1.54,3.39,3.39,0,0,0-.05-.95c-.07-.34-.2-.62-.33-.58s-.43.27-.56.55a5.76,5.76,0,0,0-.38.9,6.17,6.17,0,0,0-.26,1.64C315,423.19,315.14,423.78,315.05,423.8Z" style="fill:#263238"></path><path d="M333.46,275.49l28.16,68.1c2.61,6,3.64,11.86,1.91,18.07a25,25,0,0,1-6.22,10.56L316,420.62l-12.48-18.77,32-44-16.26-33.51,3.64-48.84Z" style="fill:#263238"></path><path d="M317.86,426.52l5.9-136.14,0-14.74-32.17-3.84s-7.3,12.94-9.4,21.65,9,59.23,9,59.23l.18,24.25,4.33,50Z" style="fill:#263238"></path><path d="M317.86,426.52c-.11,0,1.08-31,2.67-69.19s3-69.19,3.08-69.18-1.07,31-2.66,69.19S318,426.52,317.86,426.52Z" style="fill:#455a64"></path><path d="M312,275.05a2.16,2.16,0,0,1-.22.69,11.33,11.33,0,0,1-.9,1.76,13.4,13.4,0,0,1-4.68,4.48,13.26,13.26,0,0,1-6.25,1.72,11.11,11.11,0,0,1-2-.13,2.05,2.05,0,0,1-.71-.17c0-.07,1,.1,2.66,0a13.84,13.84,0,0,0,10.7-6.07C311.55,276,311.92,275,312,275.05Z" style="fill:#455a64"></path><path d="M343.17,356.46c0,.12-1.73.28-3.83.71s-3.76.94-3.81.82a11.49,11.49,0,0,1,3.73-1.24A11.25,11.25,0,0,1,343.17,356.46Z" style="fill:#455a64"></path><path d="M314.73,196.94l.18,5.34s8.72,17.24,11.71,21.82c4.27,6.54,9.22,15.18,14.82,23,2.69,3.78,19.87,18.2,26.43,24.43a8.32,8.32,0,0,1,2.29,8.6c-.17.52-2.57,4-2.86,4.39,0,0,8-7.18,6.17-13.19s-19.72-23.69-23.81-31.28c-4.37-8.11-9.83-20.81-12.63-26.19s-4.57-14.71-4.57-14.71l-12.31,3Z" style="fill:#DD6B20"></path><path d="M330.81,232.19c-.46.61-3.75,19.27-3.75,19.27l6.4,24s-1.3,2.37-10.58.85c-7.56-1.25-35.91-3.44-35.91-3.44l-1.59-38,7.79-33.6,21.74.94Z" style="fill:#ffbe9d"></path><path d="M292,206.23l16.25,21.61a5.25,5.25,0,0,0,9-1.09.78.78,0,0,0,.05-.14c1.21-3.14,3.52-13.06,3.52-13.06l10.42,18,7.18,30.16s-16.78,3.65-25.28,4.91l-24.72,3.64-3.14-35.14,4.23-20.24Z" style="fill:#fafafa"></path><path d="M332.16,199.41l23.78-17.61,15.7-22.23,14.44,5.34-.79,6.15-2.14-.29c-5.47,9.84-14.2,22.87-15.57,25.1-2.22,3.61-28.49,28-28.49,28Z" style="fill:#DD6B20"></path><g style="opacity:0.30000000000000004"><path d="M290.94,213.72a60.75,60.75,0,0,1-.07,11.52c-1.63,25.94,13.83,45.1,13.37,68.89-5.42-12.09-12-23.41-15.92-36.05A63.36,63.36,0,0,1,290.94,213.72Z"></path></g><path d="M281.92,202.13l5.45-.15,6.52-4.54-1.69,9.94s-3,16-3.09,24.29c-.18,17.67,16.9,54.77,15.71,65.25,0,0-10.79-4.76-19.52-5.72-8.37-.92-11.74,15.2-11.74,15.2s-1.36-22.11.07-28.3a119.14,119.14,0,0,1,5.24-15.22l-2.62-28.77c.19,2.17-.24-1.51-.24-1.51s-13.3,16.46-17.26,15.94c-4.49-.6-27.07-16.08-27.07-16.08l-2,3-4.34-6.14,6-13.92,24.28,11L272,207.49s4.24-5.15,9.51-5.33" style="fill:#DD6B20"></path><path d="M272.61,214.93a19.64,19.64,0,0,1,.87,3c.47,1.88,1.06,4.49,1.6,7.4s.94,5.57,1.15,7.5a15.86,15.86,0,0,1,.19,3.13,24,24,0,0,1-.56-3.08c-.3-1.91-.74-4.55-1.29-7.45L273.12,218A18.72,18.72,0,0,1,272.61,214.93Z" style="fill:#263238"></path><g style="opacity:0.30000000000000004"><path d="M337.58,212.21c1.95,3,3.44,6.59,3.23,10.2,0,0-9-15.23-10.85-17.47A23.11,23.11,0,0,1,337.58,212.21Z"></path></g><path d="M332.81,209.13a7.64,7.64,0,0,1,.87,1.18c.52.78,1.26,1.92,2.16,3.34,1.79,2.84,4.19,6.8,6.69,11.28s4.61,8.61,6,11.69c.66,1.54,1.2,2.79,1.5,3.68a7,7,0,0,1,.44,1.39,7.2,7.2,0,0,1-.63-1.31c-.36-.87-.94-2.09-1.65-3.61-1.44-3-3.58-7.13-6.08-11.59s-4.85-8.46-6.56-11.34l-2-3.42A8.08,8.08,0,0,1,332.81,209.13Z" style="fill:#263238"></path><path d="M288,202a21.19,21.19,0,0,1-.44,3.21c-.34,2-.84,4.69-1.43,7.69l-.27,1.37-.43-.24c1.89-1.73,3.59-3.26,4.87-4.38l.23-.2.07.29a18.56,18.56,0,0,1,.59,3.08,19.19,19.19,0,0,1-.94-3l.29.09c-1.22,1.18-2.88,2.74-4.76,4.49l-.58.53.15-.77.27-1.37c.58-3,1.14-5.7,1.57-7.66A19.26,19.26,0,0,1,288,202Z" style="fill:#263238"></path><path d="M320.15,202.16a13.69,13.69,0,0,1,1.33,2.07c.78,1.32,1.85,3.18,3,5.32l.56,1-.93-.65c-.6-.42-1.23-.88-1.86-1.35a35,35,0,0,1-3.24-2.68l.4-.23c.43,1.92.78,3.57,1,4.73a8,8,0,0,1,.28,1.86,9.1,9.1,0,0,1-.57-1.79c-.31-1.15-.72-2.78-1.19-4.69l-.19-.79.59.56a40.33,40.33,0,0,0,3.22,2.61l1.85,1.36-.37.33c-1.18-2.15-2.19-4.05-2.9-5.41A12.52,12.52,0,0,1,320.15,202.16Z" style="fill:#263238"></path><path d="M315,202.59a5.63,5.63,0,0,1,.4.65l1.07,1.91,3.92,7c3.33,5.92,8,14.06,13.31,22.94a127.49,127.49,0,0,0,8.14,12.09,80.57,80.57,0,0,0,8.24,8.55c2.5,2.29,4.57,4.09,6,5.35l1.63,1.46a5.26,5.26,0,0,1,.54.54,5.57,5.57,0,0,1-.61-.46l-1.69-1.38c-1.47-1.21-3.58-3-6.12-5.24a75.81,75.81,0,0,1-8.37-8.53,119.65,119.65,0,0,1-8.2-12.11c-5.34-8.89-9.95-17.06-13.19-23-1.63-3-2.91-5.42-3.78-7.1-.41-.82-.73-1.47-1-2A3.61,3.61,0,0,1,315,202.59Z" style="fill:#263238"></path><g style="opacity:0.30000000000000004"><path d="M324.54,209.82c-1.16-2.33-2.58-4.09-3.74-6.42l-.29-.59c2.33,2.61,4.35,6.19,6.35,9.36A17.31,17.31,0,0,1,321,208.8a27.2,27.2,0,0,0-.34,3.18c-.45-2-.92-4.1-1.37-6.08C319.33,205.9,322.77,208.74,324.54,209.82Z"></path></g><g style="opacity:0.30000000000000004"><path d="M291.21,212.81l-.9-1.28-6,5.89a5,5,0,0,1,.27-2.38c.64-2.31,1.59-5.15,2.23-7.46-.3,2.09-.9,4.71-1.21,6.81,1.59-1.58,3.18-3,4.85-4.61Z"></path></g><g style="opacity:0.30000000000000004"><path d="M272.61,215.39c1.24,4.21,3.17,12.82,3.4,17.21h0C273.82,228.36,272,220.11,272.61,215.39Z"></path></g><path d="M290.27,219.24a4.34,4.34,0,0,1-.08.81c-.07.53-.17,1.3-.27,2.31-.19,2-.4,4.91-.47,8.51s-.12,7.92,1.25,12.5c1.19,4.61,2.75,9.62,4.35,14.89s3.33,10.22,4.76,14.77,2.64,8.69,3.46,12.2a79.5,79.5,0,0,1,1.57,8.41c.15,1,.19,1.79.24,2.32a3.81,3.81,0,0,1,0,.81,4.2,4.2,0,0,1-.14-.8c-.09-.52-.16-1.3-.34-2.3-.3-2-.86-4.85-1.73-8.35s-2.08-7.61-3.56-12.14-3.17-9.5-4.8-14.77-3.14-10.28-4.31-14.92c-.28-1.16-.56-2.29-.76-3.41a25.72,25.72,0,0,1-.35-3.3c-.11-2.13-.09-4.11,0-5.91.1-3.62.38-6.53.63-8.54.13-1,.26-1.77.36-2.3A6.89,6.89,0,0,1,290.27,219.24Z" style="fill:#263238"></path><path d="M279.5,263a17.35,17.35,0,0,1,3.76.37,17.71,17.71,0,0,1,3.71.68,11.73,11.73,0,0,1-3.79-.16A11.5,11.5,0,0,1,279.5,263Z" style="fill:#263238"></path><path d="M238.74,218.74a87.8,87.8,0,0,1-4.28,8.48,86.63,86.63,0,0,1-4.73,8.24A86.21,86.21,0,0,1,234,227,85.33,85.33,0,0,1,238.74,218.74Z" style="fill:#263238"></path><path d="M367.44,165.7a16.91,16.91,0,0,1,2.63.83c1.61.55,3.83,1.3,6.31,2.06s4.75,1.38,6.39,1.82a15.25,15.25,0,0,1,2.64.79,13.69,13.69,0,0,1-2.73-.43c-1.67-.35-4-.92-6.45-1.68s-4.71-1.57-6.29-2.22A12.07,12.07,0,0,1,367.44,165.7Z" style="fill:#263238"></path><path d="M302.25,249.28a17.09,17.09,0,0,1,2.09-1.73c1.31-1,3.1-2.49,5-4.18s3.56-3.29,4.74-4.46a17.23,17.23,0,0,1,2-1.86,12.22,12.22,0,0,1-1.7,2.11,62.41,62.41,0,0,1-9.79,8.68A11.46,11.46,0,0,1,302.25,249.28Z" style="fill:#263238"></path><g style="opacity:0.30000000000000004"><path d="M297,253.19c3.44-2.83,10.35-6.58,15-11.91l.46.05c-3.82,5.51-7.91,11.26-14,14.12-.76.36-1.83.59-2.28-.12S296.36,253.72,297,253.19Z"></path></g><path d="M325.15,163.85s.35,8.38,6.2,13.74c2.45,2.25,7.38,3.11,8.68,6.17l.35,1.52s-21,13.41-28.45,13.87l-6.27-15.43Z" style="fill:#263238"></path><path d="M284.2,171.18c1.71-7.38,2.36-16,8.49-20.77,4.55-3.57,9.74-4.56,15.52-4.32a20.52,20.52,0,0,1,8.53,2.83c3.4,1.93,4.84,5.83,6.48,9.37,3.28,7.1,2.87,16.71.64,19.38L294.2,193.34c-5.93-3.08-9.64-4.31-10.58-12.21A29,29,0,0,1,284.2,171.18Z" style="fill:#263238"></path><path d="M297.71,154.15,312,150.76c6-.87,10.32,6.4,10.94,12.45.69,6.72,1.27,14.94.67,20-1.21,10.16-8.9,11.75-8.9,11.75s0,.15,0,3.16L315,203a8.45,8.45,0,0,1-1.64,5.51c-2.75,3.57-7.77,4-13.69,1.86-3.43-1.27-4.85-5.75-5.11-9.23l-2.82-41.24C291.58,158,295.88,154.42,297.71,154.15Z" style="fill:#ffbe9d"></path><path d="M320.89,172.85a1.29,1.29,0,0,1-1.2,1.35,1.23,1.23,0,0,1-1.38-1.11,1.31,1.31,0,0,1,1.2-1.36A1.24,1.24,0,0,1,320.89,172.85Z" style="fill:#263238"></path><path d="M321.38,169.3c-.15.18-1.16-.51-2.55-.45s-2.39.79-2.55.63.07-.39.51-.73a3.54,3.54,0,0,1,2-.71,3.42,3.42,0,0,1,2,.57C321.3,168.92,321.46,169.22,321.38,169.3Z" style="fill:#263238"></path><path d="M308.37,172.85a1.29,1.29,0,0,1-1.2,1.35,1.23,1.23,0,0,1-1.38-1.11,1.3,1.3,0,0,1,1.19-1.36A1.25,1.25,0,0,1,308.37,172.85Z" style="fill:#263238"></path><path d="M308.57,169.3c-.15.18-1.16-.51-2.56-.45s-2.38.79-2.54.63.07-.39.5-.73a3.59,3.59,0,0,1,2-.71,3.43,3.43,0,0,1,2.05.57C308.49,168.92,308.65,169.22,308.57,169.3Z" style="fill:#263238"></path><path d="M313.1,178.5a9.13,9.13,0,0,1,2.25-.49c.35,0,.69-.14.74-.38a1.85,1.85,0,0,0-.28-1l-1.16-2.67c-1.62-3.8-2.8-6.93-2.64-7a48.48,48.48,0,0,1,3.2,6.77c.38.94.76,1.83,1.11,2.69a2.07,2.07,0,0,1,.24,1.39.88.88,0,0,1-.56.54,2.55,2.55,0,0,1-.61.11A9,9,0,0,1,313.1,178.5Z" style="fill:#263238"></path><path d="M314.71,195A25.69,25.69,0,0,1,301,191.89s3.62,6.93,13.7,5.59Z" style="fill:#eb996e"></path><path d="M308.55,181.55a1.91,1.91,0,0,1,1.56-.93,2.46,2.46,0,0,1,2.31,1,1.56,1.56,0,0,1,.15,1.12c-.08.19,0,.09-.16.23a4.33,4.33,0,0,1-1.74,1.17,1.85,1.85,0,0,1-2-.65A1.9,1.9,0,0,1,308.55,181.55Z" style="fill:#eb996e"></path><path d="M308.79,179.69c.22,0,.29,1.49,1.64,2.5s2.94.78,3,1-.34.31-1,.36a3.82,3.82,0,0,1-2.48-.74,3.25,3.25,0,0,1-1.27-2.1C308.53,180.07,308.68,179.69,308.79,179.69Z" style="fill:#263238"></path><path d="M308.2,164.36c-.1.39-1.51.35-3.12.7s-2.88.93-3.13.61c-.11-.15.08-.53.58-.94a5.53,5.53,0,0,1,4.76-1C307.91,163.91,308.24,164.18,308.2,164.36Z" style="fill:#263238"></path><path d="M321.27,165.55c-.32.27-1.33-.21-2.61-.41s-2.39-.13-2.59-.49c-.09-.18.13-.47.64-.69a4,4,0,0,1,2.2-.21,3.82,3.82,0,0,1,2,.93C321.31,165.07,321.41,165.41,321.27,165.55Z" style="fill:#263238"></path><path d="M311.74,149.67c0,.08,0,.15.05.22l0,0Z" style="fill:#263238"></path><path d="M309.57,193.34c-.33-2.81-6.42-9.14-8.53-11-3.72-3.34-5.65-5.62-3.72-12.68a10.74,10.74,0,0,0,6.57-3.79,29.81,29.81,0,0,0,4.44-8.17,13.71,13.71,0,0,1-2.75,7.86,3.69,3.69,0,0,0,3.15-1,8.24,8.24,0,0,0,1.85-2.87,22.49,22.49,0,0,0,1.79-8.08,29.12,29.12,0,0,1-1.32,11.8,4.94,4.94,0,0,1,2.19.09,2.42,2.42,0,0,0,2.09-.45,2.58,2.58,0,0,0,.58-1.35,30.34,30.34,0,0,0,.33-10.28,31.27,31.27,0,0,1,2.32,5.7,11,11,0,0,1,0,6.08.9.9,0,0,0,1.26,0,2.2,2.2,0,0,0,.55-1.27,15.83,15.83,0,0,0-.34-5.12A26.19,26.19,0,0,1,322,164.6a8.13,8.13,0,0,0,3.63,4.55c.29-3-.27-4.4-.72-7.17a23.25,23.25,0,0,0-2.27-6.15,18.12,18.12,0,0,0-4.1-5.7c-3-2.61-4.22-1.49-6.12-.49l-.22.09s0-.09,0-.14l-.08-.4a28.49,28.49,0,0,0-15,.7,20.16,20.16,0,0,0-9.82,8.15c0,.06-.07.12-.1.19-9,17-4.65,27.07.47,40.55l10.22-1.92-3.26-6.8,4.16,6.92Z" style="fill:#263238"></path><path d="M311.68,192a8.25,8.25,0,0,0-1.31-4,12.24,12.24,0,0,0-3.24-3.23c-1.41-1-3.13-1.93-4.82-3.11a11.64,11.64,0,0,1-3.87-4.32,11.24,11.24,0,0,1-1.2-4.58,10.38,10.38,0,0,1,.33-3.18,5.4,5.4,0,0,1,.28-.82c.07-.18.12-.27.14-.27a15.38,15.38,0,0,0-.38,4.24,11.11,11.11,0,0,0,5,8.5c1.64,1.16,3.37,2.08,4.79,3.15a12.22,12.22,0,0,1,3.28,3.43,7.35,7.35,0,0,1,1,3A2.69,2.69,0,0,1,311.68,192Z" style="fill:#263238"></path><path d="M212,75c0,2.92,0,5.85,0,8.78q0,11.84-.1,23.68-.08,17.63-.16,35.25l-.18,42.71-.21,47.1q-.1,23.61-.2,47.23-.1,22.15-.2,44.33l-.16,37.21-.12,26.94c0,4.23-.1,8.46-.05,12.68v.56a5,5,0,0,0,10,0q0-4.39,0-8.78,0-11.85.1-23.69l.15-35.25q.09-21.35.19-42.71.11-23.55.2-47.1l.21-47.22q.09-22.17.19-44.33l.16-37.21.12-26.95c0-4.22.1-8.45.06-12.68,0-.18,0-.37,0-.55a5,5,0,0,0-10,0Z" style="fill:#DD6B20"></path><g style="opacity:0.6"><path d="M212,75c0,2.92,0,5.85,0,8.78q0,11.84-.1,23.68-.08,17.63-.16,35.25l-.18,42.71-.21,47.1q-.1,23.61-.2,47.23-.1,22.15-.2,44.33l-.16,37.21-.12,26.94c0,4.23-.1,8.46-.05,12.68v.56a5,5,0,0,0,10,0q0-4.39,0-8.78,0-11.85.1-23.69l.15-35.25q.09-21.35.19-42.71.11-23.55.2-47.1l.21-47.22q.09-22.17.19-44.33l.16-37.21.12-26.95c0-4.22.1-8.45.06-12.68,0-.18,0-.37,0-.55a5,5,0,0,0-10,0Z"></path></g><path d="M211.93,88c10-1.56,18.29-2.32,27.6,1,4.65,1.65,9.66,5.86,14.72,6.22,4.56.33,9-1.41,13.52-2,7.16-.91,14.74,1.3,19.56,5.69,0,0-11.44-3.62-21.26,3.12s-13.12,13-26.19,8.86c-8.29-2.64-23.89-1.43-28.17,3.5Z" style="fill:#DD6B20"></path><path d="M211.93,88a4.57,4.57,0,0,1,0,.48c0,.33,0,.79,0,1.37v5.26c0,4.56,0,11.13-.07,19.27l-.32-.12a13.38,13.38,0,0,1,5.78-3.27,35.91,35.91,0,0,1,7.09-1.43,48.64,48.64,0,0,1,7.77-.19,33,33,0,0,1,8.15,1.4,21.37,21.37,0,0,0,8.44,1.11,16.61,16.61,0,0,0,8.16-3.34c2.49-1.77,4.88-3.82,7.48-5.68a28.64,28.64,0,0,1,4.1-2.58l1.1-.54,1.15-.44a18.42,18.42,0,0,1,2.35-.76,28,28,0,0,1,14.27.12l-.25.43a24.23,24.23,0,0,0-14.63-5.78A27.7,27.7,0,0,0,265,94c-2.43.49-4.79,1.11-7.17,1.39a19.08,19.08,0,0,1-3.54.11,13.51,13.51,0,0,1-3.37-.74,38.35,38.35,0,0,1-5.87-2.8,41.86,41.86,0,0,0-5.38-2.66A40,40,0,0,0,225,86.83c-2.77,0-5.15.25-7.08.46s-3.43.41-4.43.54l-1.14.15-.41,0,.38-.08,1.14-.2c1-.16,2.5-.4,4.44-.64a68.88,68.88,0,0,1,7.1-.53,42.51,42.51,0,0,1,9.46.82,44.29,44.29,0,0,1,5.35,1.51,43.84,43.84,0,0,1,5.44,2.65,38.47,38.47,0,0,0,5.82,2.76,13.35,13.35,0,0,0,3.26.7,19.17,19.17,0,0,0,3.46-.12c2.33-.28,4.68-.9,7.13-1.41a28.09,28.09,0,0,1,7.65-.64,24.59,24.59,0,0,1,14.94,5.89l.81.72-1.06-.28a27.67,27.67,0,0,0-14-.11,22,22,0,0,0-2.3.74l-1.12.44-1.08.53a28.08,28.08,0,0,0-4,2.53c-2.58,1.85-5,3.88-7.49,5.67a17.16,17.16,0,0,1-8.4,3.43,22,22,0,0,1-8.63-1.15,32.48,32.48,0,0,0-8-1.4,46.76,46.76,0,0,0-7.7.16,35.82,35.82,0,0,0-7,1.38,13,13,0,0,0-5.63,3.13l-.32.35v-.47c.12-8.19.2-14.79.27-19.37,0-2.25.07-4,.09-5.22,0-.57,0-1,0-1.34S211.93,88,211.93,88Z" style="fill:#263238"></path><path d="M262,98c0,.08-1.11.51-2.65,1.7a29.08,29.08,0,0,0-2.56,2.26c-.93.9-1.92,1.93-3.06,2.93a15,15,0,0,1-3.53,2.42,9.26,9.26,0,0,1-3.39.88,6.37,6.37,0,0,1-2.35-.31,2.11,2.11,0,0,1-.77-.38,9,9,0,0,0,3.09.32,9.16,9.16,0,0,0,3.21-.95,15.52,15.52,0,0,0,3.4-2.37c1.11-1,2.11-2,3.06-2.89a24.22,24.22,0,0,1,2.68-2.21,11.78,11.78,0,0,1,2.05-1.15A2.28,2.28,0,0,1,262,98Z" style="fill:#263238"></path><g style="opacity:0.30000000000000004"><path d="M243.7,108.45c-3.65-1.6-6.35-3.33-10-4.93a9.37,9.37,0,0,1-4.14-2.8,4.8,4.8,0,0,1,.43-5.89c1.8-1.88,4.87-1.93,7.29-1s4.39,2.74,6.54,4.22,4.68,2.71,7.25,2.33c2-.29,3.78-1.54,5.54-2.62s3.77-2,5.79-1.67c.52.1,1.64.28,1.82.78s-.49.6-1.25.75a7.78,7.78,0,0,0-1.61.59,15.33,15.33,0,0,0-4.88,3.7,31,31,0,0,1-5.77,5,10.46,10.46,0,0,1-7,1.52"></path></g><path d="M340.77,179.55a8,8,0,0,1-1.49-.2,28.56,28.56,0,0,1-4-1,13.49,13.49,0,0,1-5.31-3,10,10,0,0,1-2.09-3,21.22,21.22,0,0,1-1.22-3.71,49.68,49.68,0,0,0-2-7.13,37.63,37.63,0,0,0-2.58-5.47,39.47,39.47,0,0,0-2.2-3.44,10.2,10.2,0,0,1-.84-1.25s.11.08.28.27a10.93,10.93,0,0,1,.73.86,33.8,33.8,0,0,1,2.35,3.37,35.41,35.41,0,0,1,2.71,5.48,47.28,47.28,0,0,1,2.07,7.19A12.9,12.9,0,0,0,330.3,175a13.45,13.45,0,0,0,5.09,3.05,36.38,36.38,0,0,0,3.93,1.12A8.36,8.36,0,0,1,340.77,179.55Z" style="fill:#263238"></path><path d="M224.25,214.26l-3.77-2.34-9.64-5.09s-1.92,1.86,1.32,4.54l4,3.16s3.57,6.46,4.3,7c1.28.9,4,.59,4,.59" style="fill:#ffbe9d"></path><path d="M224.43,222.1a2.57,2.57,0,0,1-.91.13,6.76,6.76,0,0,1-2.56-.29,2.12,2.12,0,0,1-.79-.47,9.11,9.11,0,0,1-.58-.77c-.38-.54-.75-1.13-1.14-1.77-.79-1.27-1.63-2.71-2.52-4.29l.07.08-2.56-2a14.66,14.66,0,0,1-2.63-2.35,3.58,3.58,0,0,1-.78-1.83,2.48,2.48,0,0,1,.63-1.89l.12-.13.18.09c3.87,2.06,7.24,3.88,9.6,5.17h0l2.73,1.78a6.23,6.23,0,0,1,.95.7,6.91,6.91,0,0,1-1-.54l-2.82-1.66h0c-2.4-1.21-5.8-3-9.68-5l.3,0a1.94,1.94,0,0,0-.47,1.47,3,3,0,0,0,.68,1.56,14.4,14.4,0,0,0,2.53,2.27l2.54,2,0,0,0,0c.87,1.57,1.69,3,2.44,4.31.38.64.73,1.24,1.09,1.78a6.41,6.41,0,0,0,.53.74,1.78,1.78,0,0,0,.65.42,7.59,7.59,0,0,0,2.45.41A7.18,7.18,0,0,1,224.43,222.1Z" style="fill:#eb996e"></path><path d="M373.92,403.69S367,426.16,357.5,445.18H104.26l-2.63-2.78a168.73,168.73,0,0,1-38.52-65c-1.48-4.68-2.34-8.07-2-8.77Z" style="fill:#455a64"></path><path d="M57.05,382.42,375.85,404a7.86,7.86,0,0,0,8.37-7.31h0a7.87,7.87,0,0,0-7.31-8.38L58.11,366.74a7.85,7.85,0,0,0-8.37,7.31h0A7.85,7.85,0,0,0,57.05,382.42Z" style="fill:#263238"></path><path d="M62.22,382.52l314.43,21.67" style="fill:#a86b62"></path><path d="M376.65,404.19c0,.14-70.41-4.59-157.23-10.58S62.21,382.67,62.22,382.52s70.39,4.59,157.24,10.58S376.66,404,376.65,404.19Z" style="fill:#263238"></path><path d="M369.41,416.92c0,.15-66.4-3.22-148.28-7.5s-148.28-7.89-148.27-8,66.39,3.21,148.29,7.51S369.42,416.78,369.41,416.92Z" style="fill:#e0e0e0"></path><path d="M362.75,433.8c0,.15-62.11-2.28-138.7-5.42s-138.7-5.81-138.7-5.95,62.1,2.28,138.72,5.43S362.75,433.66,362.75,433.8Z" style="fill:#e0e0e0"></path><path d="M125.6,404.35a73,73,0,0,1-.26-8.65,72.94,72.94,0,0,1,.26-8.64,70.46,70.46,0,0,1,.26,8.64A70.57,70.57,0,0,1,125.6,404.35Z" style="fill:#e0e0e0"></path><path d="M192.88,445.18a75.72,75.72,0,0,1-.26-9,75.61,75.61,0,0,1,.26-9,78.27,78.27,0,0,1,.26,9A78.38,78.38,0,0,1,192.88,445.18Z" style="fill:#e0e0e0"></path><path d="M289.8,412.75a102.75,102.75,0,0,1,0-14.61,102.75,102.75,0,0,1,0,14.61Z" style="fill:#e0e0e0"></path><path d="M243.65,428.92a80.57,80.57,0,0,1-.26-9.24,80.57,80.57,0,0,1,.26-9.24,83.41,83.41,0,0,1,.26,9.24A83.41,83.41,0,0,1,243.65,428.92Z" style="fill:#e0e0e0"></path><path d="M59,455.55c11.24-13.38,21.27-20.33,37-25.82a67.5,67.5,0,0,1,48.72,1.81c9.65,4.2,19,10.84,29.49,10.21,10.94-.66,19.92-9.11,30.62-11.49,20.21-4.48,40.28,13.44,60.57,9.38,9.53-1.9,17.82-8.51,27.5-9.24,13.79-1,25.87,10,39.68,10.91,11.28.74,22.26-5.41,33.49-4.13,9.45,1.07,17.43,7.2,26,11.26s9.05,4.81,26.67,6.45" style="fill:#fff"></path><path d="M418.72,454.89l-1-.07-2.89-.26a109.81,109.81,0,0,1-11.06-1.47,32.63,32.63,0,0,1-7.64-2.58c-2.67-1.25-5.59-2.57-8.62-4.22s-6.21-3.48-9.71-5.19a37.52,37.52,0,0,0-11.66-3.72,33.05,33.05,0,0,0-6.6,0,62.24,62.24,0,0,0-6.83,1.12c-4.61,1-9.37,2.33-14.46,2.89a30.42,30.42,0,0,1-7.8-.06,42.9,42.9,0,0,1-7.82-1.92c-5.15-1.77-10.17-4.26-15.53-6.23S295.89,429.89,290,431s-11.3,4.13-17.07,6.47a39.1,39.1,0,0,1-9.09,2.64,36,36,0,0,1-9.62,0c-6.44-.8-12.68-2.92-18.93-5s-12.46-4.23-18.83-5a35.4,35.4,0,0,0-9.48,0,34,34,0,0,0-8.94,2.67c-5.7,2.45-10.93,5.76-16.67,7.69a26.89,26.89,0,0,1-8.8,1.53,28.54,28.54,0,0,1-8.61-1.47c-5.5-1.75-10.41-4.5-15.28-6.87q-3.63-1.81-7.31-3.22c-1.24-.42-2.45-.9-3.7-1.25l-1.85-.55-1.85-.47a67.27,67.27,0,0,0-39.89,2.39A90.73,90.73,0,0,0,84,434.93a72.28,72.28,0,0,0-8.22,4.9,77.13,77.13,0,0,0-6.33,5,98.33,98.33,0,0,0-7.9,7.86c-.86.93-1.48,1.68-1.92,2.17s-.67.73-.67.73.21-.27.63-.77,1-1.25,1.88-2.2a94,94,0,0,1,7.84-7.94,79.23,79.23,0,0,1,6.33-5,70.86,70.86,0,0,1,8.22-4.95A92.67,92.67,0,0,1,94,430.26a68.66,68.66,0,0,1,11.92-3.32,68,68,0,0,1,28.19.83l1.87.47,1.86.55c1.25.35,2.47.83,3.72,1.25q3.71,1.41,7.37,3.23c4.87,2.37,9.78,5.1,15.21,6.83a28.39,28.39,0,0,0,8.47,1.43,26.28,26.28,0,0,0,8.64-1.51c5.66-1.91,10.88-5.21,16.62-7.69a34.81,34.81,0,0,1,9.07-2.71,35.69,35.69,0,0,1,9.63,0c6.43.81,12.67,2.95,18.93,5.06s12.46,4.21,18.82,5a35.39,35.39,0,0,0,9.48,0,38.34,38.34,0,0,0,9-2.6c5.75-2.32,11.19-5.36,17.17-6.49a26.54,26.54,0,0,1,8.93-.12,41.57,41.57,0,0,1,8.43,2.27c5.39,2,10.4,4.49,15.51,6.25a42,42,0,0,0,7.73,1.92,30.48,30.48,0,0,0,7.69.07c5.05-.54,9.8-1.88,14.43-2.85a62.09,62.09,0,0,1,6.87-1.11,33.85,33.85,0,0,1,6.68,0A37.6,37.6,0,0,1,378,440.8c3.51,1.73,6.69,3.59,9.71,5.23s5.92,3,8.58,4.26a32.81,32.81,0,0,0,7.58,2.6c4.74,1,8.5,1.27,11,1.57l2.89.31Z" style="fill:#263238"></path><path d="M82,426.57a34.28,34.28,0,0,0-18.84-7.91,16.5,16.5,0,0,0-6.78.54,8.17,8.17,0,0,0-5,4.36,5.48,5.48,0,0,0,1.37,6.24,6.35,6.35,0,0,0,5,1,26,26,0,0,0,5-1.61,47.27,47.27,0,0,1,19-3" style="fill:#fafafa"></path><path d="M81.61,426.19a3.35,3.35,0,0,1-.72,0c-.47,0-1.17,0-2.07,0a48.52,48.52,0,0,0-12.63,2c-1.81.52-3.67,1.25-5.66,2a14.33,14.33,0,0,1-3.2.84,7.31,7.31,0,0,1-3.48-.38,4.85,4.85,0,0,1-2.64-2.48,6,6,0,0,1-.42-3.71,6.61,6.61,0,0,1,1.78-3.28,9.08,9.08,0,0,1,3-2,14.79,14.79,0,0,1,6.66-.89,33.7,33.7,0,0,1,11,2.65,34,34,0,0,1,6.63,3.77c.72.55,1.26,1,1.62,1.3s.54.48.52.5a4.45,4.45,0,0,1-.59-.42c-.37-.29-.94-.7-1.67-1.21a36.4,36.4,0,0,0-6.65-3.6,34.17,34.17,0,0,0-10.89-2.51,14.35,14.35,0,0,0-6.43.88,7.3,7.3,0,0,0-4.45,4.94,5.6,5.6,0,0,0,.37,3.39A4.33,4.33,0,0,0,54,430.26a6.86,6.86,0,0,0,3.23.37,14.71,14.71,0,0,0,3.1-.8c2-.76,3.88-1.49,5.7-2a46.2,46.2,0,0,1,5.15-1.16,43.87,43.87,0,0,1,7.6-.63c.9,0,1.6,0,2.07.07A4,4,0,0,1,81.61,426.19Z" style="fill:#263238"></path><circle cx="165.65" cy="427.1" r="5.64" style="fill:#fafafa"></circle><path d="M171.29,427.1c-.06,0,0-.5-.28-1.35a5.6,5.6,0,0,0-2.06-3,5.51,5.51,0,0,0-5.15-.73,5.42,5.42,0,1,0,5.15,9.41,5.58,5.58,0,0,0,2.06-3c.24-.85.22-1.36.28-1.36s0,.13,0,.37a4,4,0,0,1-.11,1,5.61,5.61,0,0,1-2,3.23,5.81,5.81,0,0,1-5.53.9,5.88,5.88,0,0,1-2.75-2,6,6,0,0,1-1.15-3.49,5.87,5.87,0,0,1,1.16-3.48,5.73,5.73,0,0,1,2.74-2,5.81,5.81,0,0,1,5.53.89,5.64,5.64,0,0,1,2,3.23,4.09,4.09,0,0,1,.11,1Q171.32,427.1,171.29,427.1Z" style="fill:#263238"></path></g></svg>